<svg xmlns="http://www.w3.org/2000/svg" version="1.1" xmlns:xlink="http://www.w3.org/1999/xlink" xmlns:svgjs="http://svgjs.com/svgjs" width="1920" height="1080" preserveAspectRatio="none" viewBox="0 0 1920 1080"><g mask="url(&quot;#SvgjsMask2400&quot;)" fill="none"><rect width="1920" height="1080" x="0" y="0" fill="rgba(19, 19, 19, 1)"></rect><g transform="translate(0, 237.6)" stroke-linecap="round" stroke="url(#SvgjsLinearGradient2401)"><path d="M648 448.97 L648 631.03" stroke-width="19.5"></path><path d="M674 417.57 L674 662.42" stroke-width="19.5"></path><path d="M700 456.44 L700 623.56" stroke-width="19.5"></path><path d="M726 501.55 L726 578.46" stroke-width="19.5"></path><path d="M752 389.77 L752 690.23" stroke-width="19.5"></path><path d="M778 488.96 L778 591.04" stroke-width="19.5"></path><path d="M804 468.37 L804 611.63" stroke-width="19.5"></path><path d="M830 471.38 L830 608.62" stroke-width="19.5"></path><path d="M856 454.15 L856 625.85" stroke-width="19.5"></path><path d="M882 520.39 L882 559.61" stroke-width="19.5"></path><path d="M908 472.73 L908 607.27" stroke-width="19.5"></path><path d="M934 377.41 L934 702.59" stroke-width="19.5"></path><path d="M960 440.13 L960 639.87" stroke-width="19.5"></path><path d="M986 380.07 L986 699.92" stroke-width="19.5"></path><path d="M1012 418.43 L1012 661.58" stroke-width="19.5"></path><path d="M1038 445.35 L1038 634.65" stroke-width="19.5"></path><path d="M1064 457.69 L1064 622.31" stroke-width="19.5"></path><path d="M1090 404.78 L1090 675.22" stroke-width="19.5"></path><path d="M1116 405.48 L1116 674.52" stroke-width="19.5"></path><path d="M1142 513.75 L1142 566.25" stroke-width="19.5"></path><path d="M1168 465.57 L1168 614.42" stroke-width="19.5"></path><path d="M1194 509.5 L1194 570.5" stroke-width="19.5"></path><path d="M1220 472.58 L1220 607.42" stroke-width="19.5"></path><path d="M1246 412.14 L1246 667.86" stroke-width="19.5"></path><path d="M1272 370.25 L1272 709.75" stroke-width="19.5"></path></g></g><defs><mask id="SvgjsMask2400"><rect width="1920" height="1080" fill="#ffffff"></rect></mask><linearGradient x1="624" y1="540" x2="1296" y2="540" gradientUnits="userSpaceOnUse" id="SvgjsLinearGradient2401"><stop stop-color="rgba(195, 161, 58, 1)" offset="0"></stop><stop stop-color="rgba(246, 75, 25, 1)" offset="1"></stop></linearGradient></defs></svg>