<svg id="visual" viewBox="0 0 960 540" width="960" height="540" xmlns="http://www.w3.org/2000/svg" xmlns:xlink="http://www.w3.org/1999/xlink" version="1.1"><rect x="0" y="0" width="960" height="540" fill="#131313"></rect><path d="M0 393L22.8 388C45.7 383 91.3 373 137 360.7C182.7 348.3 228.3 333.7 274 335C319.7 336.3 365.3 353.7 411.2 360.7C457 367.7 503 364.3 548.8 356.8C594.7 349.3 640.3 337.7 686 331C731.7 324.3 777.3 322.7 823 326.5C868.7 330.3 914.3 339.7 937.2 344.3L960 349L960 541L937.2 541C914.3 541 868.7 541 823 541C777.3 541 731.7 541 686 541C640.3 541 594.7 541 548.8 541C503 541 457 541 411.2 541C365.3 541 319.7 541 274 541C228.3 541 182.7 541 137 541C91.3 541 45.7 541 22.8 541L0 541Z" fill="#e89140"></path><path d="M0 396L22.8 390.8C45.7 385.7 91.3 375.3 137 374.8C182.7 374.3 228.3 383.7 274 389.7C319.7 395.7 365.3 398.3 411.2 396.3C457 394.3 503 387.7 548.8 392.2C594.7 396.7 640.3 412.3 686 413.3C731.7 414.3 777.3 400.7 823 397C868.7 393.3 914.3 399.7 937.2 402.8L960 406L960 541L937.2 541C914.3 541 868.7 541 823 541C777.3 541 731.7 541 686 541C640.3 541 594.7 541 548.8 541C503 541 457 541 411.2 541C365.3 541 319.7 541 274 541C228.3 541 182.7 541 137 541C91.3 541 45.7 541 22.8 541L0 541Z" fill="#e17e36"></path><path d="M0 405L22.8 403.2C45.7 401.3 91.3 397.7 137 398.7C182.7 399.7 228.3 405.3 274 405.3C319.7 405.3 365.3 399.7 411.2 404.2C457 408.7 503 423.3 548.8 432.5C594.7 441.7 640.3 445.3 686 438.3C731.7 431.3 777.3 413.7 823 410.8C868.7 408 914.3 420 937.2 426L960 432L960 541L937.2 541C914.3 541 868.7 541 823 541C777.3 541 731.7 541 686 541C640.3 541 594.7 541 548.8 541C503 541 457 541 411.2 541C365.3 541 319.7 541 274 541C228.3 541 182.7 541 137 541C91.3 541 45.7 541 22.8 541L0 541Z" fill="#d96b2e"></path><path d="M0 488L22.8 485C45.7 482 91.3 476 137 467.2C182.7 458.3 228.3 446.7 274 445.8C319.7 445 365.3 455 411.2 454.7C457 454.3 503 443.7 548.8 439.3C594.7 435 640.3 437 686 439.2C731.7 441.3 777.3 443.7 823 444.3C868.7 445 914.3 444 937.2 443.5L960 443L960 541L937.2 541C914.3 541 868.7 541 823 541C777.3 541 731.7 541 686 541C640.3 541 594.7 541 548.8 541C503 541 457 541 411.2 541C365.3 541 319.7 541 274 541C228.3 541 182.7 541 137 541C91.3 541 45.7 541 22.8 541L0 541Z" fill="#d05728"></path><path d="M0 508L22.8 504.8C45.7 501.7 91.3 495.3 137 496.2C182.7 497 228.3 505 274 503.8C319.7 502.7 365.3 492.3 411.2 492.7C457 493 503 504 548.8 508.3C594.7 512.7 640.3 510.3 686 507.2C731.7 504 777.3 500 823 499.2C868.7 498.3 914.3 500.7 937.2 501.8L960 503L960 541L937.2 541C914.3 541 868.7 541 823 541C777.3 541 731.7 541 686 541C640.3 541 594.7 541 548.8 541C503 541 457 541 411.2 541C365.3 541 319.7 541 274 541C228.3 541 182.7 541 137 541C91.3 541 45.7 541 22.8 541L0 541Z" fill="#c74124"></path></svg>